<svg width="24" height="24" viewBox="0 0 24 24" fill="none" xmlns="http://www.w3.org/2000/svg">
<path d="M9.4 16.05L12 14.025L14.6 16.05L13.6 12.85L16.05 10.8H13.05L12 7.75L10.95 10.8H7.95L10.4 12.85L9.4 16.05ZM3.5 20C3.06667 20 2.70833 19.8583 2.425 19.575C2.14167 19.2917 2 18.9333 2 18.5V14.675C2.61667 14.5417 3.12917 14.2292 3.5375 13.7375C3.94583 13.2458 4.15 12.6667 4.15 12C4.15 11.3333 3.94583 10.75 3.5375 10.25C3.12917 9.75 2.61667 9.44167 2 9.325V5.5C2 5.06667 2.14167 4.70833 2.425 4.425C2.70833 4.14167 3.06667 4 3.5 4H20.5C20.9333 4 21.2917 4.14167 21.575 4.425C21.8583 4.70833 22 5.06667 22 5.5V9.325C21.3833 9.44167 20.8708 9.75 20.4625 10.25C20.0542 10.75 19.85 11.3333 19.85 12C19.85 12.6667 20.0542 13.2458 20.4625 13.7375C20.8708 14.2292 21.3833 14.5417 22 14.675V18.5C22 18.9333 21.8583 19.2917 21.575 19.575C21.2917 19.8583 20.9333 20 20.5 20H3.5ZM3.5 18.5H20.5V15.775C19.8667 15.3417 19.35 14.8 18.95 14.15C18.55 13.5 18.35 12.7833 18.35 12C18.35 11.2167 18.55 10.5 18.95 9.85C19.35 9.2 19.8667 8.65833 20.5 8.225V5.5H3.5V8.225C4.15 8.65833 4.67083 9.2 5.0625 9.85C5.45417 10.5 5.65 11.2167 5.65 12C5.65 12.7833 5.45417 13.5 5.0625 14.15C4.67083 14.8 4.15 15.3417 3.5 15.775V18.5Z" fill="black"/>
</svg>
