<svg width="20" height="20" viewBox="0 0 20 20" fill="none" xmlns="http://www.w3.org/2000/svg">
<g clip-path="url(#clip0_4703_9938)">
<path d="M16.6667 7.5H9.16667C8.24619 7.5 7.5 8.24619 7.5 9.16667V16.6667C7.5 17.5871 8.24619 18.3333 9.16667 18.3333H16.6667C17.5871 18.3333 18.3333 17.5871 18.3333 16.6667V9.16667C18.3333 8.24619 17.5871 7.5 16.6667 7.5Z" stroke="black" stroke-width="2" stroke-linecap="round" stroke-linejoin="round"/>
<path d="M4.16675 12.5013H3.33341C2.89139 12.5013 2.46746 12.3257 2.1549 12.0131C1.84234 11.7006 1.66675 11.2767 1.66675 10.8346V3.33464C1.66675 2.89261 1.84234 2.46868 2.1549 2.15612C2.46746 1.84356 2.89139 1.66797 3.33341 1.66797H10.8334C11.2754 1.66797 11.6994 1.84356 12.0119 2.15612C12.3245 2.46868 12.5001 2.89261 12.5001 3.33464V4.16797" stroke="black" stroke-width="2" stroke-linecap="round" stroke-linejoin="round"/>
</g>
<defs>
<clipPath id="clip0_4703_9938">
<rect width="20" height="20" fill="white"/>
</clipPath>
</defs>
</svg>
