<svg width="20" height="20" viewBox="0 0 20 20" fill="none" xmlns="http://www.w3.org/2000/svg">
<path d="M1.66675 5.27067V1.6665H5.27091V2.9165H2.91675V5.27067H1.66675ZM1.66675 18.3332V14.729H2.91675V17.0832H5.27091V18.3332H1.66675ZM14.7292 18.3332V17.0832H17.0834V14.729H18.3334V18.3332H14.7292ZM17.0834 5.27067V2.9165H14.7292V1.6665H18.3334V5.27067H17.0834ZM14.7501 14.7707H16.0626V16.0832H14.7501V14.7707ZM14.7501 12.1457H16.0626V13.4582H14.7501V12.1457ZM13.4376 13.4582H14.7501V14.7707H13.4376V13.4582ZM12.1251 14.7707H13.4376V16.0832H12.1251V14.7707ZM10.8126 13.4582H12.1251V14.7707H10.8126V13.4582ZM13.4376 10.8332H14.7501V12.1457H13.4376V10.8332ZM12.1251 12.1457H13.4376V13.4582H12.1251V12.1457ZM10.8126 10.8332H12.1251V12.1457H10.8126V10.8332ZM16.0626 3.9165V9.1665H10.8126V3.9165H16.0626ZM9.16675 10.8332V16.0832H3.91675V10.8332H9.16675ZM9.16675 3.9165V9.1665H3.91675V3.9165H9.16675ZM8.12508 15.0415V11.8748H4.95841V15.0415H8.12508ZM8.12508 8.12484V4.95817H4.95841V8.12484H8.12508ZM15.0209 8.12484V4.95817H11.8542V8.12484H15.0209Z" fill="#696969"/>
</svg>
